# xmcd CD database file
#
# Track frame offsets:
#	150
#	45948
#	97971
#	147969
#	205992
#
# Disc length: 3568 seconds
#
# Revision: 0
# Processed by: cddbd v1.5.2PL0 Copyright (c) Steve Scherf et al.
# Submitted via: CDex 1.51
#
DISCID=3b0dee05
DTITLE=David Kikoski trio - Live At Smalls
DYEAR=2008
DGENRE=Jazz
TTITLE0=Inner urge
TTITLE1=Dirty Dogs
TTITLE2=Billie's Bounce
TTITLE3=7/4 Ballad
TTITLE4=Grey Areas
EXTD=YEAR: 2008
EXTT0=
EXTT1=
EXTT2=
EXTT3=
EXTT4=
PLAYORDER=
